<?xml version="1.0" encoding="utf-8"?>
<!-- Generator: Adobe Illustrator 19.2.1, SVG Export Plug-In . SVG Version: 6.00 Build 0)  -->
<svg version="1.1" id="Capa_1" xmlns="http://www.w3.org/2000/svg" xmlns:xlink="http://www.w3.org/1999/xlink" x="0px" y="0px"
	 viewBox="0 0 64 64" style="enable-background:new 0 0 64 64;" xml:space="preserve">
<style type="text/css">
	.st0{fill:#5B5B5F;}
</style>
<g>
	<path class="st0" d="M49.188,7H14.812C10.497,7,7,10.499,7,14.813v34.374C7,53.502,10.497,57,14.812,57h34.375
		C53.501,57,57,53.502,57,49.187V14.813C57,10.499,53.501,7,49.188,7z M25.176,43.948h-5.36V27.829h5.36V43.948z M22.495,25.627
		H22.46c-1.797,0-2.96-1.24-2.96-2.786c0-1.582,1.199-2.788,3.03-2.788c1.834,0,2.963,1.205,2.997,2.788
		C25.527,24.386,24.365,25.627,22.495,25.627z M44.5,43.948h-5.359v-8.624c0-2.167-0.775-3.647-2.716-3.647
		c-1.479,0-2.362,1.001-2.75,1.962c-0.142,0.345-0.177,0.822-0.177,1.306v9.003h-5.357c0,0,0.069-14.609,0-16.119h5.357v2.283
		c0.714-1.1,1.987-2.661,4.831-2.661c3.525,0,6.171,2.303,6.171,7.256V43.948z"/>
	<path class="st0" d="M33.498,30.163v-0.052c-0.009,0.018-0.023,0.037-0.035,0.052H33.498z"/>
</g>
</svg>
